<?xml version="1.0" encoding="us-ascii" standalone="no"?><svg xmlns="http://www.w3.org/2000/svg" xmlns:xlink="http://www.w3.org/1999/xlink" contentStyleType="text/css" height="837px" preserveAspectRatio="none" style="width:1082px;height:837px;background:#FFFFFF;" version="1.1" viewBox="0 0 1082 837" width="1082px" zoomAndPan="magnify"><defs/><g><text fill="#000000" font-family="sans-serif" font-size="14" font-weight="bold" lengthAdjust="spacing" textLength="138" x="473" y="29.5332">Cancel Reservation</text><rect fill="#FFFFFF" height="591.3516" style="stroke:#181818;stroke-width:1.0;" width="10" x="435.5" y="153.5703"/><rect fill="#FFFFFF" height="377.4063" style="stroke:#181818;stroke-width:1.0;" width="10" x="696.5" y="315.1641"/><rect fill="#FFFFFF" height="46.7031" style="stroke:#181818;stroke-width:1.0;" width="10" x="907.5" y="345.5156"/><rect fill="#FFFFFF" height="162.5938" style="stroke:#181818;stroke-width:1.0;" width="10" x="907.5" y="422.5703"/><rect fill="#FFFFFF" height="30.3516" style="stroke:#181818;stroke-width:1.0;" width="10" x="1002.5" y="631.8672"/><rect fill="none" height="509.6484" style="stroke:#000000;stroke-width:1.5;" width="1065" x="10" y="228.2734"/><rect fill="none" height="293.3516" style="stroke:#000000;stroke-width:1.5;" width="1045" x="20" y="437.5703"/><line style="stroke:#181818;stroke-width:0.5;stroke-dasharray:5.0,5.0;" x1="63" x2="63" y1="121.2188" y2="754.9219"/><line style="stroke:#181818;stroke-width:0.5;stroke-dasharray:5.0,5.0;" x1="440.5" x2="440.5" y1="121.2188" y2="754.9219"/><line style="stroke:#181818;stroke-width:0.5;stroke-dasharray:5.0,5.0;" x1="701.5" x2="701.5" y1="121.2188" y2="754.9219"/><line style="stroke:#181818;stroke-width:0.5;stroke-dasharray:5.0,5.0;" x1="912" x2="912" y1="121.2188" y2="754.9219"/><line style="stroke:#181818;stroke-width:0.5;stroke-dasharray:5.0,5.0;" x1="1007" x2="1007" y1="121.2188" y2="754.9219"/><text fill="#000000" font-family="sans-serif" font-size="14" lengthAdjust="spacing" textLength="61" x="30" y="118.1426">Customer</text><ellipse cx="63.5" cy="52.1094" fill="#E2E2F0" rx="8" ry="8" style="stroke:#181818;stroke-width:0.5;"/><path d="M63.5,60.1094 L63.5,87.1094 M50.5,68.1094 L76.5,68.1094 M63.5,87.1094 L50.5,102.1094 M63.5,87.1094 L76.5,102.1094 " fill="none" style="stroke:#181818;stroke-width:0.5;"/><text fill="#000000" font-family="sans-serif" font-size="14" lengthAdjust="spacing" textLength="61" x="30" y="768.4551">Customer</text><ellipse cx="63.5" cy="780.0313" fill="#E2E2F0" rx="8" ry="8" style="stroke:#181818;stroke-width:0.5;"/><path d="M63.5,788.0313 L63.5,815.0313 M50.5,796.0313 L76.5,796.0313 M63.5,815.0313 L50.5,830.0313 M63.5,815.0313 L76.5,830.0313 " fill="none" style="stroke:#181818;stroke-width:0.5;"/><rect fill="#E2E2F0" height="31.6094" rx="2.5" ry="2.5" style="stroke:#181818;stroke-width:0.5;" width="60" x="410.5" y="88.6094"/><text fill="#000000" font-family="sans-serif" font-size="14" lengthAdjust="spacing" textLength="46" x="417.5" y="110.1426">System</text><rect fill="#E2E2F0" height="31.6094" rx="2.5" ry="2.5" style="stroke:#181818;stroke-width:0.5;" width="60" x="410.5" y="753.9219"/><text fill="#000000" font-family="sans-serif" font-size="14" lengthAdjust="spacing" textLength="46" x="417.5" y="775.4551">System</text><rect fill="#E2E2F0" height="31.6094" rx="2.5" ry="2.5" style="stroke:#181818;stroke-width:0.5;" width="56" x="673.5" y="88.6094"/><text fill="#000000" font-family="sans-serif" font-size="14" lengthAdjust="spacing" textLength="42" x="680.5" y="110.1426">Server</text><rect fill="#E2E2F0" height="31.6094" rx="2.5" ry="2.5" style="stroke:#181818;stroke-width:0.5;" width="56" x="673.5" y="753.9219"/><text fill="#000000" font-family="sans-serif" font-size="14" lengthAdjust="spacing" textLength="42" x="680.5" y="775.4551">Server</text><rect fill="#E2E2F0" height="31.6094" rx="2.5" ry="2.5" style="stroke:#181818;stroke-width:0.5;" width="75" x="875" y="88.6094"/><text fill="#000000" font-family="sans-serif" font-size="14" lengthAdjust="spacing" textLength="61" x="882" y="110.1426">Database</text><rect fill="#E2E2F0" height="31.6094" rx="2.5" ry="2.5" style="stroke:#181818;stroke-width:0.5;" width="75" x="875" y="753.9219"/><text fill="#000000" font-family="sans-serif" font-size="14" lengthAdjust="spacing" textLength="61" x="882" y="775.4551">Database</text><rect fill="#E2E2F0" height="31.6094" rx="2.5" ry="2.5" style="stroke:#181818;stroke-width:0.5;" width="95" x="960" y="88.6094"/><text fill="#000000" font-family="sans-serif" font-size="14" lengthAdjust="spacing" textLength="81" x="967" y="110.1426">EmailService</text><rect fill="#E2E2F0" height="31.6094" rx="2.5" ry="2.5" style="stroke:#181818;stroke-width:0.5;" width="95" x="960" y="753.9219"/><text fill="#000000" font-family="sans-serif" font-size="14" lengthAdjust="spacing" textLength="81" x="967" y="775.4551">EmailService</text><rect fill="#FFFFFF" height="591.3516" style="stroke:#181818;stroke-width:1.0;" width="10" x="435.5" y="153.5703"/><rect fill="#FFFFFF" height="377.4063" style="stroke:#181818;stroke-width:1.0;" width="10" x="696.5" y="315.1641"/><rect fill="#FFFFFF" height="46.7031" style="stroke:#181818;stroke-width:1.0;" width="10" x="907.5" y="345.5156"/><rect fill="#FFFFFF" height="162.5938" style="stroke:#181818;stroke-width:1.0;" width="10" x="907.5" y="422.5703"/><rect fill="#FFFFFF" height="30.3516" style="stroke:#181818;stroke-width:1.0;" width="10" x="1002.5" y="631.8672"/><polygon fill="#181818" points="423.5,149.5703,433.5,153.5703,423.5,157.5703,427.5,153.5703" style="stroke:#181818;stroke-width:1.0;"/><line style="stroke:#181818;stroke-width:1.0;" x1="63.5" x2="429.5" y1="153.5703" y2="153.5703"/><text fill="#000000" font-family="sans-serif" font-size="13" lengthAdjust="spacing" textLength="113" x="70.5" y="148.7139">cancelReservation()</text><line style="stroke:#181818;stroke-width:1.0;" x1="445.5" x2="487.5" y1="200.2734" y2="200.2734"/><line style="stroke:#181818;stroke-width:1.0;" x1="487.5" x2="487.5" y1="200.2734" y2="213.2734"/><line style="stroke:#181818;stroke-width:1.0;" x1="446.5" x2="487.5" y1="213.2734" y2="213.2734"/><polygon fill="#181818" points="456.5,209.2734,446.5,213.2734,456.5,217.2734,452.5,213.2734" style="stroke:#181818;stroke-width:1.0;"/><text fill="#000000" font-family="sans-serif" font-size="13" lengthAdjust="spacing" textLength="117" x="452.5" y="179.0654">Confirm cancellation</text><text fill="#000000" font-family="sans-serif" font-size="13" lengthAdjust="spacing" textLength="77" x="452.5" y="195.417">(prompt user)</text><path d="M10,228.2734 L71,228.2734 L71,236.625 L61,246.625 L10,246.625 L10,228.2734 " fill="#EEEEEE" style="stroke:#000000;stroke-width:1.5;"/><rect fill="none" height="509.6484" style="stroke:#000000;stroke-width:1.5;" width="1065" x="10" y="228.2734"/><text fill="#000000" font-family="sans-serif" font-size="13" font-weight="bold" lengthAdjust="spacing" textLength="16" x="25" y="242.7686">alt</text><text fill="#000000" font-family="sans-serif" font-size="11" font-weight="bold" lengthAdjust="spacing" textLength="125" x="86" y="241.6924">[User Cancels Prompt]</text><polygon fill="#181818" points="74.5,264.9766,64.5,268.9766,74.5,272.9766,70.5,268.9766" style="stroke:#181818;stroke-width:1.0;"/><line style="stroke:#181818;stroke-width:1.0;stroke-dasharray:2.0,2.0;" x1="68.5" x2="434.5" y1="268.9766" y2="268.9766"/><text fill="#000000" font-family="sans-serif" font-size="13" lengthAdjust="spacing" textLength="77" x="80.5" y="264.1201">Stay on page</text><line style="stroke:#000000;stroke-width:1.0;stroke-dasharray:2.0,2.0;" x1="10" x2="1075" y1="277.9766" y2="277.9766"/><text fill="#000000" font-family="sans-serif" font-size="11" font-weight="bold" lengthAdjust="spacing" textLength="89" x="15" y="289.3955">[User Confirms]</text><polygon fill="#181818" points="684.5,311.1641,694.5,315.1641,684.5,319.1641,688.5,315.1641" style="stroke:#181818;stroke-width:1.0;"/><line style="stroke:#181818;stroke-width:1.0;" x1="445.5" x2="690.5" y1="315.1641" y2="315.1641"/><text fill="#000000" font-family="sans-serif" font-size="13" lengthAdjust="spacing" textLength="232" x="452.5" y="310.3076">DELETE /api/reservations/{reservationId}</text><polygon fill="#181818" points="895.5,341.5156,905.5,345.5156,895.5,349.5156,899.5,345.5156" style="stroke:#181818;stroke-width:1.0;"/><line style="stroke:#181818;stroke-width:1.0;" x1="706.5" x2="901.5" y1="345.5156" y2="345.5156"/><text fill="#000000" font-family="sans-serif" font-size="13" lengthAdjust="spacing" textLength="165" x="713.5" y="340.6592">getReservation(reservationId)</text><polygon fill="#181818" points="717.5,388.2188,707.5,392.2188,717.5,396.2188,713.5,392.2188" style="stroke:#181818;stroke-width:1.0;"/><line style="stroke:#181818;stroke-width:1.0;stroke-dasharray:2.0,2.0;" x1="711.5" x2="911.5" y1="392.2188" y2="392.2188"/><text fill="#000000" font-family="sans-serif" font-size="13" lengthAdjust="spacing" textLength="102" x="723.5" y="371.0107">reservation record</text><text fill="#000000" font-family="sans-serif" font-size="13" lengthAdjust="spacing" textLength="134" x="723.5" y="387.3623">(userEmail, eventId, ...)</text><polygon fill="#181818" points="895.5,418.5703,905.5,422.5703,895.5,426.5703,899.5,422.5703" style="stroke:#181818;stroke-width:1.0;"/><line style="stroke:#181818;stroke-width:1.0;" x1="706.5" x2="901.5" y1="422.5703" y2="422.5703"/><text fill="#000000" font-family="sans-serif" font-size="13" lengthAdjust="spacing" textLength="182" x="713.5" y="417.7139">deleteReservation(reservationId)</text><path d="M20,437.5703 L81,437.5703 L81,445.9219 L71,455.9219 L20,455.9219 L20,437.5703 " fill="#EEEEEE" style="stroke:#000000;stroke-width:1.5;"/><rect fill="none" height="293.3516" style="stroke:#000000;stroke-width:1.5;" width="1045" x="20" y="437.5703"/><text fill="#000000" font-family="sans-serif" font-size="13" font-weight="bold" lengthAdjust="spacing" textLength="16" x="35" y="452.0654">alt</text><text fill="#000000" font-family="sans-serif" font-size="11" font-weight="bold" lengthAdjust="spacing" textLength="132" x="96" y="450.9893">[Reservation Not Found]</text><polygon fill="#181818" points="717.5,474.2734,707.5,478.2734,717.5,482.2734,713.5,478.2734" style="stroke:#181818;stroke-width:1.0;"/><line style="stroke:#181818;stroke-width:1.0;stroke-dasharray:2.0,2.0;" x1="711.5" x2="906.5" y1="478.2734" y2="478.2734"/><text fill="#000000" font-family="sans-serif" font-size="13" lengthAdjust="spacing" textLength="60" x="723.5" y="473.417">Error / null</text><polygon fill="#181818" points="456.5,504.625,446.5,508.625,456.5,512.625,452.5,508.625" style="stroke:#181818;stroke-width:1.0;"/><line style="stroke:#181818;stroke-width:1.0;stroke-dasharray:2.0,2.0;" x1="450.5" x2="695.5" y1="508.625" y2="508.625"/><text fill="#000000" font-family="sans-serif" font-size="13" lengthAdjust="spacing" textLength="139" x="462.5" y="503.7686">500 Internal Server Error</text><polygon fill="#181818" points="74.5,534.9766,64.5,538.9766,74.5,542.9766,70.5,538.9766" style="stroke:#181818;stroke-width:1.0;"/><line style="stroke:#181818;stroke-width:1.0;stroke-dasharray:2.0,2.0;" x1="68.5" x2="434.5" y1="538.9766" y2="538.9766"/><text fill="#000000" font-family="sans-serif" font-size="13" lengthAdjust="spacing" textLength="168" x="80.5" y="534.1201">"Failed to cancel reservation"</text><line style="stroke:#000000;stroke-width:1.0;stroke-dasharray:2.0,2.0;" x1="20" x2="1065" y1="547.9766" y2="547.9766"/><text fill="#000000" font-family="sans-serif" font-size="11" font-weight="bold" lengthAdjust="spacing" textLength="123" x="25" y="559.3955">[Deleted Successfully]</text><polygon fill="#181818" points="717.5,581.1641,707.5,585.1641,717.5,589.1641,713.5,585.1641" style="stroke:#181818;stroke-width:1.0;"/><line style="stroke:#181818;stroke-width:1.0;stroke-dasharray:2.0,2.0;" x1="711.5" x2="911.5" y1="585.1641" y2="585.1641"/><text fill="#000000" font-family="sans-serif" font-size="13" lengthAdjust="spacing" textLength="104" x="723.5" y="580.3076">Confirmed deleted</text><polygon fill="#181818" points="990.5,627.8672,1000.5,631.8672,990.5,635.8672,994.5,631.8672" style="stroke:#181818;stroke-width:1.0;"/><line style="stroke:#181818;stroke-width:1.0;" x1="706.5" x2="996.5" y1="631.8672" y2="631.8672"/><text fill="#000000" font-family="sans-serif" font-size="13" lengthAdjust="spacing" textLength="171" x="713.5" y="610.6592">sendCancellationConfirmation</text><text fill="#000000" font-family="sans-serif" font-size="13" lengthAdjust="spacing" textLength="66" x="713.5" y="627.0107">(userEmail)</text><polygon fill="#181818" points="74.5,658.2188,64.5,662.2188,74.5,666.2188,70.5,662.2188" style="stroke:#181818;stroke-width:1.0;"/><line style="stroke:#181818;stroke-width:1.0;stroke-dasharray:2.0,2.0;" x1="68.5" x2="1006.5" y1="662.2188" y2="662.2188"/><text fill="#000000" font-family="sans-serif" font-size="13" lengthAdjust="spacing" textLength="180" x="80.5" y="657.3623">Cancellation confirmation email</text><polygon fill="#181818" points="456.5,688.5703,446.5,692.5703,456.5,696.5703,452.5,692.5703" style="stroke:#181818;stroke-width:1.0;"/><line style="stroke:#181818;stroke-width:1.0;stroke-dasharray:2.0,2.0;" x1="450.5" x2="700.5" y1="692.5703" y2="692.5703"/><text fill="#000000" font-family="sans-serif" font-size="13" lengthAdjust="spacing" textLength="155" x="462.5" y="687.7139">200 OK {status: cancelled}</text><polygon fill="#181818" points="74.5,718.9219,64.5,722.9219,74.5,726.9219,70.5,722.9219" style="stroke:#181818;stroke-width:1.0;"/><line style="stroke:#181818;stroke-width:1.0;stroke-dasharray:2.0,2.0;" x1="68.5" x2="434.5" y1="722.9219" y2="722.9219"/><text fill="#000000" font-family="sans-serif" font-size="13" lengthAdjust="spacing" textLength="348" x="80.5" y="718.0654">"Reservation cancelled. A confirmation email has been sent"</text><!--SRC=[bLJ1Yjim4BthAuQSDh1Dba8lFYmqiHV2BcrfsbilMdbsAx0b8uq3OTb_xqYo7JarXGOI9CsyfpTlHY5D3S9U6eKDV4UFxYH9MoE4L6GTx7jFjaKdEkb8Azr9Gx0wdZrXkmBfWPTNCQP0bsBkD8-LakIpz1YZvMuUh5gfcu3MAYN40o562V3XFjnMW8fgCx4tww1MymQZ7i4_K_RUcXVjsW7LHC0lSzCvstO4FPEikTY6u2Sl1oSyV8jX0Vo9PCmswYZWIF8Cra0dNr5mDWxOT1FVFy7kWmS5bDLJzQE2hUpqrbrq- -rRjZlKxn5uAONjIrJk5AZANG6lI7dXC_Xw3cT_mxxSHVLHHvREQsLTpKu42wBLju0dD7IeRs6psIIs6dE-QpKrDaZu7uBI0PkTOU2B9NYmlQbZz5fpvHpFuHPCtpHJGjGmTlZJtHqS3A4pie4qVWbrIV-hXQi7BXXh83iCHkxDAW9ZOyjOOGt7NYdq_eL5d1Tb3itdr6JAfPW52pCRe_C5U3JrFflGWMwSrgb7wma_aQPdCXx7tLMnEJ6eZ1bmXisK3czlqU-FxFVNHtZp9AcVtYEx-Rx45ARu7tt81s4Ysi3d1Ptmc_yKdX5DS8k69l7KXA_8RppxFm00]--></g></svg>