<?xml version="1.0" encoding="us-ascii" standalone="no"?><svg xmlns="http://www.w3.org/2000/svg" xmlns:xlink="http://www.w3.org/1999/xlink" contentStyleType="text/css" height="385px" preserveAspectRatio="none" style="width:396px;height:385px;background:#FFFFFF;" version="1.1" viewBox="0 0 396 385" width="396px" zoomAndPan="magnify"><defs/><g><text fill="#000000" font-family="sans-serif" font-size="14" font-weight="bold" lengthAdjust="spacing" textLength="149" x="116.75" y="24.5332">Database ER Diagram</text><!--class User--><g id="elem_User"><rect codeLine="3" fill="#F1F1F1" height="136.0469" id="User" rx="2.5" ry="2.5" style="stroke:#181818;stroke-width:0.5;" width="188" x="7" y="45.6094"/><ellipse cx="82.25" cy="61.6094" fill="#ADD1B2" rx="11" ry="11" style="stroke:#181818;stroke-width:1.0;"/><path d="M81.1094,62.4063 L81.1094,64.9063 L85.4375,64.9063 L85.4375,63.9844 Q85.4375,63.375 85.6719,63.1094 Q85.9219,62.8438 86.2969,62.8438 Q86.6719,62.8438 86.9063,63.1094 Q87.1406,63.375 87.1406,63.9844 L87.1406,66.6094 L79.1406,66.6094 Q78.5156,66.6094 78.25,66.375 Q78,66.1406 78,65.75 Q78,65.375 78.2656,65.1406 Q78.5313,64.9063 79.1406,64.9063 L79.4063,64.9063 L79.4063,58.25 L79.1406,58.25 Q78.5156,58.25 78.25,58.0156 Q78,57.7813 78,57.3906 Q78,57.0156 78.25,56.7813 Q78.5156,56.5469 79.1406,56.5469 L86.7656,56.5469 L86.7656,59.1406 Q86.7656,59.75 86.5313,60.0156 Q86.3125,60.2656 85.9219,60.2656 Q85.5469,60.2656 85.3125,60.0156 Q85.0781,59.75 85.0781,59.1406 L85.0781,58.25 L81.1094,58.25 L81.1094,60.7031 L82.5938,60.7031 Q82.5938,60.0469 82.7188,59.8594 Q82.9844,59.4531 83.4531,59.4531 Q83.8281,59.4531 84.0625,59.7188 Q84.2969,59.9688 84.2969,60.5781 L84.2969,62.5469 Q84.2969,63.0938 84.1719,63.2813 Q83.9063,63.6719 83.4531,63.6719 Q82.9844,63.6719 82.7188,63.2656 Q82.5938,63.0781 82.5938,62.4063 L81.1094,62.4063 Z " fill="#000000"/><text fill="#000000" font-family="sans-serif" font-size="14" lengthAdjust="spacing" textLength="29" x="102.75" y="67.3379">User</text><line style="stroke:#181818;stroke-width:0.5;" x1="8" x2="194" y1="77.6094" y2="77.6094"/><ellipse cx="18" cy="91.9141" fill="#000000" rx="3" ry="3" style="stroke:#000000;stroke-width:1.0;"/><text fill="#000000" font-family="sans-serif" font-size="14" lengthAdjust="spacing" textLength="126" x="27" y="96.1426">userId : String &#171;PK&#187;</text><line style="stroke:#181818;stroke-width:1.0;" x1="8" x2="194" y1="103.2188" y2="103.2188"/><text fill="#000000" font-family="sans-serif" font-size="14" lengthAdjust="spacing" textLength="82" x="13" y="121.752">email : String</text><text fill="#000000" font-family="sans-serif" font-size="14" lengthAdjust="spacing" textLength="128" x="13" y="139.3613">phoneNumber : long</text><text fill="#000000" font-family="sans-serif" font-size="14" lengthAdjust="spacing" textLength="176" x="13" y="156.9707">password : String &#171;hashed&#187;</text><text fill="#000000" font-family="sans-serif" font-size="14" lengthAdjust="spacing" textLength="73" x="13" y="174.5801">role : String</text></g><!--class Event--><g id="elem_Event"><rect codeLine="12" fill="#F1F1F1" height="118.4375" id="Event" rx="2.5" ry="2.5" style="stroke:#181818;stroke-width:0.5;" width="159" x="230.5" y="54.6094"/><ellipse cx="287.75" cy="70.6094" fill="#ADD1B2" rx="11" ry="11" style="stroke:#181818;stroke-width:1.0;"/><path d="M286.6094,71.4063 L286.6094,73.9063 L290.9375,73.9063 L290.9375,72.9844 Q290.9375,72.375 291.1719,72.1094 Q291.4219,71.8438 291.7969,71.8438 Q292.1719,71.8438 292.4063,72.1094 Q292.6406,72.375 292.6406,72.9844 L292.6406,75.6094 L284.6406,75.6094 Q284.0156,75.6094 283.75,75.375 Q283.5,75.1406 283.5,74.75 Q283.5,74.375 283.7656,74.1406 Q284.0313,73.9063 284.6406,73.9063 L284.9063,73.9063 L284.9063,67.25 L284.6406,67.25 Q284.0156,67.25 283.75,67.0156 Q283.5,66.7813 283.5,66.3906 Q283.5,66.0156 283.75,65.7813 Q284.0156,65.5469 284.6406,65.5469 L292.2656,65.5469 L292.2656,68.1406 Q292.2656,68.75 292.0313,69.0156 Q291.8125,69.2656 291.4219,69.2656 Q291.0469,69.2656 290.8125,69.0156 Q290.5781,68.75 290.5781,68.1406 L290.5781,67.25 L286.6094,67.25 L286.6094,69.7031 L288.0938,69.7031 Q288.0938,69.0469 288.2188,68.8594 Q288.4844,68.4531 288.9531,68.4531 Q289.3281,68.4531 289.5625,68.7188 Q289.7969,68.9688 289.7969,69.5781 L289.7969,71.5469 Q289.7969,72.0938 289.6719,72.2813 Q289.4063,72.6719 288.9531,72.6719 Q288.4844,72.6719 288.2188,72.2656 Q288.0938,72.0781 288.0938,71.4063 L286.6094,71.4063 Z " fill="#000000"/><text fill="#000000" font-family="sans-serif" font-size="14" lengthAdjust="spacing" textLength="36" x="308.25" y="76.3379">Event</text><line style="stroke:#181818;stroke-width:0.5;" x1="231.5" x2="388.5" y1="86.6094" y2="86.6094"/><ellipse cx="241.5" cy="100.9141" fill="#000000" rx="3" ry="3" style="stroke:#000000;stroke-width:1.0;"/><text fill="#000000" font-family="sans-serif" font-size="14" lengthAdjust="spacing" textLength="133" x="250.5" y="105.1426">eventId : String &#171;PK&#187;</text><line style="stroke:#181818;stroke-width:1.0;" x1="231.5" x2="388.5" y1="112.2188" y2="112.2188"/><text fill="#000000" font-family="sans-serif" font-size="14" lengthAdjust="spacing" textLength="67" x="236.5" y="130.752">date : long</text><text fill="#000000" font-family="sans-serif" font-size="14" lengthAdjust="spacing" textLength="98" x="236.5" y="148.3613">location : String</text><text fill="#000000" font-family="sans-serif" font-size="14" lengthAdjust="spacing" textLength="104" x="236.5" y="165.9707">category : String</text></g><!--class Reservation--><g id="elem_Reservation"><rect codeLine="20" fill="#F1F1F1" height="118.4375" id="Reservation" rx="2.5" ry="2.5" style="stroke:#181818;stroke-width:0.5;" width="195" x="107.5" y="259.6094"/><ellipse cx="162.75" cy="275.6094" fill="#ADD1B2" rx="11" ry="11" style="stroke:#181818;stroke-width:1.0;"/><path d="M161.6094,276.4063 L161.6094,278.9063 L165.9375,278.9063 L165.9375,277.9844 Q165.9375,277.375 166.1719,277.1094 Q166.4219,276.8438 166.7969,276.8438 Q167.1719,276.8438 167.4063,277.1094 Q167.6406,277.375 167.6406,277.9844 L167.6406,280.6094 L159.6406,280.6094 Q159.0156,280.6094 158.75,280.375 Q158.5,280.1406 158.5,279.75 Q158.5,279.375 158.7656,279.1406 Q159.0313,278.9063 159.6406,278.9063 L159.9063,278.9063 L159.9063,272.25 L159.6406,272.25 Q159.0156,272.25 158.75,272.0156 Q158.5,271.7813 158.5,271.3906 Q158.5,271.0156 158.75,270.7813 Q159.0156,270.5469 159.6406,270.5469 L167.2656,270.5469 L167.2656,273.1406 Q167.2656,273.75 167.0313,274.0156 Q166.8125,274.2656 166.4219,274.2656 Q166.0469,274.2656 165.8125,274.0156 Q165.5781,273.75 165.5781,273.1406 L165.5781,272.25 L161.6094,272.25 L161.6094,274.7031 L163.0938,274.7031 Q163.0938,274.0469 163.2188,273.8594 Q163.4844,273.4531 163.9531,273.4531 Q164.3281,273.4531 164.5625,273.7188 Q164.7969,273.9688 164.7969,274.5781 L164.7969,276.5469 Q164.7969,277.0938 164.6719,277.2813 Q164.4063,277.6719 163.9531,277.6719 Q163.4844,277.6719 163.2188,277.2656 Q163.0938,277.0781 163.0938,276.4063 L161.6094,276.4063 Z " fill="#000000"/><text fill="#000000" font-family="sans-serif" font-size="14" lengthAdjust="spacing" textLength="76" x="183.25" y="281.3379">Reservation</text><line style="stroke:#181818;stroke-width:0.5;" x1="108.5" x2="301.5" y1="291.6094" y2="291.6094"/><ellipse cx="118.5" cy="305.9141" fill="#000000" rx="3" ry="3" style="stroke:#000000;stroke-width:1.0;"/><text fill="#000000" font-family="sans-serif" font-size="14" lengthAdjust="spacing" textLength="169" x="127.5" y="310.1426">reservationId : String &#171;PK&#187;</text><line style="stroke:#181818;stroke-width:1.0;" x1="108.5" x2="301.5" y1="317.2188" y2="317.2188"/><ellipse cx="118.5" cy="331.5234" fill="#000000" rx="3" ry="3" style="stroke:#000000;stroke-width:1.0;"/><text fill="#000000" font-family="sans-serif" font-size="14" lengthAdjust="spacing" textLength="126" x="127.5" y="335.752">userId : String &#171;FK&#187;</text><ellipse cx="118.5" cy="349.1328" fill="#000000" rx="3" ry="3" style="stroke:#000000;stroke-width:1.0;"/><text fill="#000000" font-family="sans-serif" font-size="14" lengthAdjust="spacing" textLength="133" x="127.5" y="353.3613">eventId : String &#171;FK&#187;</text><text fill="#000000" font-family="sans-serif" font-size="14" lengthAdjust="spacing" textLength="108" x="127.5" y="370.9707">reservedAt : long</text></g><!--link User to Reservation--><g id="link_User_Reservation"><path codeLine="28" d="M138.9877,188.7594 C151.8877,213.9394 154.5696,219.1909 167.0196,243.4809 " fill="none" id="User-Reservation" style="stroke:#181818;stroke-width:1.0;"/><line style="stroke:#181818;stroke-width:1.0;" x1="133.6038" x2="140.7238" y1="187.0232" y2="183.3755"/><line style="stroke:#181818;stroke-width:1.0;" x1="134.9717" x2="142.0917" y1="189.6932" y2="186.0456"/><line style="stroke:#181818;stroke-width:1.0;" x1="138.9877" x2="135.34" y1="188.7594" y2="181.6394"/><line style="stroke:#181818;stroke-width:1.0;" x1="171.581" x2="180.5695" y1="252.3801" y2="256.7626"/><line style="stroke:#181818;stroke-width:1.0;" x1="171.581" x2="169.8905" y1="252.3801" y2="262.2362"/><line style="stroke:#181818;stroke-width:1.0;" x1="171.581" x2="175.23" y1="252.3801" y2="259.4994"/><ellipse cx="168.8442" cy="247.0406" fill="none" rx="4" ry="4" style="stroke:#181818;stroke-width:1.0;"/><text fill="#000000" font-family="sans-serif" font-size="13" lengthAdjust="spacing" textLength="39" x="161" y="226.1045">makes</text></g><!--link Event to Reservation--><g id="link_Event_Reservation"><path codeLine="29" d="M276.2343,179.885 C262.1743,207.065 257.4203,216.2618 243.3603,243.4418 " fill="none" id="Event-Reservation" style="stroke:#181818;stroke-width:1.0;"/><line style="stroke:#181818;stroke-width:1.0;" x1="274.5194" x2="281.625" y1="174.4943" y2="178.17"/><line style="stroke:#181818;stroke-width:1.0;" x1="273.141" x2="280.2466" y1="177.1589" y2="180.8346"/><line style="stroke:#181818;stroke-width:1.0;" x1="276.2343" x2="279.91" y1="179.885" y2="172.7794"/><line style="stroke:#181818;stroke-width:1.0;" x1="238.7657" x2="240.4192" y1="252.3238" y2="262.1861"/><line style="stroke:#181818;stroke-width:1.0;" x1="238.7657" x2="229.7608" y1="252.3238" y2="256.6726"/><line style="stroke:#181818;stroke-width:1.0;" x1="238.7657" x2="235.09" y1="252.3238" y2="259.4294"/><ellipse cx="241.5224" cy="246.9946" fill="none" rx="4" ry="4" style="stroke:#181818;stroke-width:1.0;"/><text fill="#000000" font-family="sans-serif" font-size="13" lengthAdjust="spacing" textLength="21" x="258" y="226.1045">has</text></g><!--SRC=[VP5H2i8m38RVUugmHs4N638GL111PE81eWjRSLkbpHHHxsxSR7Kmx4kRDFt_BobhhWZco7X0Hx38OAwni5WhHGrhli7UaOMx0baJQ2LOvP30Zgrk2fXEj-iqxIxZkDkeHbs5WYvrBar3cxO-Y502bV5fTEvgx42jH5TI_b6qHj22qZCGBIvo24ZqZlupvSZqwroP8x8spH1JSbGOUnkpp4WQl_IFlB7zvlxRZurjwMj66mYtlGVbC_RymjJzoECHn-O-04iWgl54BbBzXCPBPCIHUW40]--></g></svg>