<?xml version="1.0" encoding="us-ascii" standalone="no"?><svg xmlns="http://www.w3.org/2000/svg" xmlns:xlink="http://www.w3.org/1999/xlink" contentStyleType="text/css" height="500px" preserveAspectRatio="none" style="width:610px;height:500px;background:#FFFFFF;" version="1.1" viewBox="0 0 610 500" width="610px" zoomAndPan="magnify"><defs/><g><text fill="#000000" font-family="sans-serif" font-size="14" font-weight="bold" lengthAdjust="spacing" textLength="76" x="268" y="29.5332">User Login</text><rect fill="#FFFFFF" height="238.2969" style="stroke:#181818;stroke-width:1.0;" width="10" x="174.5" y="169.9219"/><rect fill="#FFFFFF" height="208.9453" style="stroke:#181818;stroke-width:1.0;" width="10" x="422.5" y="200.2734"/><rect fill="#FFFFFF" height="178.5938" style="stroke:#181818;stroke-width:1.0;" width="10" x="550.5" y="230.625"/><rect fill="none" height="155.5938" style="stroke:#000000;stroke-width:1.5;" width="593" x="10" y="245.625"/><line style="stroke:#181818;stroke-width:0.5;stroke-dasharray:5.0,5.0;" x1="53" x2="53" y1="121.2188" y2="418.2188"/><line style="stroke:#181818;stroke-width:0.5;stroke-dasharray:5.0,5.0;" x1="179.5" x2="179.5" y1="121.2188" y2="418.2188"/><line style="stroke:#181818;stroke-width:0.5;stroke-dasharray:5.0,5.0;" x1="427.5" x2="427.5" y1="121.2188" y2="418.2188"/><line style="stroke:#181818;stroke-width:0.5;stroke-dasharray:5.0,5.0;" x1="555" x2="555" y1="121.2188" y2="418.2188"/><text fill="#000000" font-family="sans-serif" font-size="14" lengthAdjust="spacing" textLength="61" x="20" y="118.1426">Customer</text><ellipse cx="53.5" cy="52.1094" fill="#E2E2F0" rx="8" ry="8" style="stroke:#181818;stroke-width:0.5;"/><path d="M53.5,60.1094 L53.5,87.1094 M40.5,68.1094 L66.5,68.1094 M53.5,87.1094 L40.5,102.1094 M53.5,87.1094 L66.5,102.1094 " fill="none" style="stroke:#181818;stroke-width:0.5;"/><text fill="#000000" font-family="sans-serif" font-size="14" lengthAdjust="spacing" textLength="61" x="20" y="431.752">Customer</text><ellipse cx="53.5" cy="443.3281" fill="#E2E2F0" rx="8" ry="8" style="stroke:#181818;stroke-width:0.5;"/><path d="M53.5,451.3281 L53.5,478.3281 M40.5,459.3281 L66.5,459.3281 M53.5,478.3281 L40.5,493.3281 M53.5,478.3281 L66.5,493.3281 " fill="none" style="stroke:#181818;stroke-width:0.5;"/><rect fill="#E2E2F0" height="31.6094" rx="2.5" ry="2.5" style="stroke:#181818;stroke-width:0.5;" width="60" x="149.5" y="88.6094"/><text fill="#000000" font-family="sans-serif" font-size="14" lengthAdjust="spacing" textLength="46" x="156.5" y="110.1426">System</text><rect fill="#E2E2F0" height="31.6094" rx="2.5" ry="2.5" style="stroke:#181818;stroke-width:0.5;" width="60" x="149.5" y="417.2188"/><text fill="#000000" font-family="sans-serif" font-size="14" lengthAdjust="spacing" textLength="46" x="156.5" y="438.752">System</text><rect fill="#E2E2F0" height="31.6094" rx="2.5" ry="2.5" style="stroke:#181818;stroke-width:0.5;" width="56" x="399.5" y="88.6094"/><text fill="#000000" font-family="sans-serif" font-size="14" lengthAdjust="spacing" textLength="42" x="406.5" y="110.1426">Server</text><rect fill="#E2E2F0" height="31.6094" rx="2.5" ry="2.5" style="stroke:#181818;stroke-width:0.5;" width="56" x="399.5" y="417.2188"/><text fill="#000000" font-family="sans-serif" font-size="14" lengthAdjust="spacing" textLength="42" x="406.5" y="438.752">Server</text><rect fill="#E2E2F0" height="31.6094" rx="2.5" ry="2.5" style="stroke:#181818;stroke-width:0.5;" width="75" x="518" y="88.6094"/><text fill="#000000" font-family="sans-serif" font-size="14" lengthAdjust="spacing" textLength="61" x="525" y="110.1426">Database</text><rect fill="#E2E2F0" height="31.6094" rx="2.5" ry="2.5" style="stroke:#181818;stroke-width:0.5;" width="75" x="518" y="417.2188"/><text fill="#000000" font-family="sans-serif" font-size="14" lengthAdjust="spacing" textLength="61" x="525" y="438.752">Database</text><rect fill="#FFFFFF" height="238.2969" style="stroke:#181818;stroke-width:1.0;" width="10" x="174.5" y="169.9219"/><rect fill="#FFFFFF" height="208.9453" style="stroke:#181818;stroke-width:1.0;" width="10" x="422.5" y="200.2734"/><rect fill="#FFFFFF" height="178.5938" style="stroke:#181818;stroke-width:1.0;" width="10" x="550.5" y="230.625"/><polygon fill="#181818" points="162.5,165.9219,172.5,169.9219,162.5,173.9219,166.5,169.9219" style="stroke:#181818;stroke-width:1.0;"/><line style="stroke:#181818;stroke-width:1.0;" x1="53.5" x2="168.5" y1="169.9219" y2="169.9219"/><text fill="#000000" font-family="sans-serif" font-size="13" lengthAdjust="spacing" textLength="94" x="60.5" y="148.7139">Submit lgin form</text><text fill="#000000" font-family="sans-serif" font-size="13" lengthAdjust="spacing" textLength="102" x="60.5" y="165.0654">(email, password)</text><polygon fill="#181818" points="410.5,196.2734,420.5,200.2734,410.5,204.2734,414.5,200.2734" style="stroke:#181818;stroke-width:1.0;"/><line style="stroke:#181818;stroke-width:1.0;" x1="184.5" x2="416.5" y1="200.2734" y2="200.2734"/><text fill="#000000" font-family="sans-serif" font-size="13" lengthAdjust="spacing" textLength="219" x="191.5" y="195.417">Forward credentials (email, password)</text><polygon fill="#181818" points="538.5,226.625,548.5,230.625,538.5,234.625,542.5,230.625" style="stroke:#181818;stroke-width:1.0;"/><line style="stroke:#181818;stroke-width:1.0;" x1="432.5" x2="544.5" y1="230.625" y2="230.625"/><text fill="#000000" font-family="sans-serif" font-size="13" lengthAdjust="spacing" textLength="99" x="439.5" y="225.7686">Retrieve user info</text><path d="M10,245.625 L71,245.625 L71,253.9766 L61,263.9766 L10,263.9766 L10,245.625 " fill="#EEEEEE" style="stroke:#000000;stroke-width:1.5;"/><rect fill="none" height="155.5938" style="stroke:#000000;stroke-width:1.5;" width="593" x="10" y="245.625"/><text fill="#000000" font-family="sans-serif" font-size="13" font-weight="bold" lengthAdjust="spacing" textLength="16" x="25" y="260.1201">alt</text><text fill="#000000" font-family="sans-serif" font-size="11" font-weight="bold" lengthAdjust="spacing" textLength="97" x="86" y="259.0439">[Validation Failed]</text><polygon fill="#181818" points="443.5,282.3281,433.5,286.3281,443.5,290.3281,439.5,286.3281" style="stroke:#181818;stroke-width:1.0;"/><line style="stroke:#181818;stroke-width:1.0;stroke-dasharray:2.0,2.0;" x1="437.5" x2="549.5" y1="286.3281" y2="286.3281"/><text fill="#000000" font-family="sans-serif" font-size="13" lengthAdjust="spacing" textLength="82" x="449.5" y="281.4717">user not found</text><polygon fill="#181818" points="64.5,312.6797,54.5,316.6797,64.5,320.6797,60.5,316.6797" style="stroke:#181818;stroke-width:1.0;"/><line style="stroke:#181818;stroke-width:1.0;stroke-dasharray:2.0,2.0;" x1="58.5" x2="421.5" y1="316.6797" y2="316.6797"/><text fill="#000000" font-family="sans-serif" font-size="13" lengthAdjust="spacing" textLength="70" x="70.5" y="311.8232">Invalid Login</text><line style="stroke:#000000;stroke-width:1.0;stroke-dasharray:2.0,2.0;" x1="10" x2="603" y1="325.6797" y2="325.6797"/><text fill="#000000" font-family="sans-serif" font-size="11" font-weight="bold" lengthAdjust="spacing" textLength="106" x="15" y="337.0986">[Validation Passed]</text><polygon fill="#181818" points="443.5,358.8672,433.5,362.8672,443.5,366.8672,439.5,362.8672" style="stroke:#181818;stroke-width:1.0;"/><line style="stroke:#181818;stroke-width:1.0;" x1="437.5" x2="549.5" y1="362.8672" y2="362.8672"/><text fill="#000000" font-family="sans-serif" font-size="13" lengthAdjust="spacing" textLength="65" x="449.5" y="358.0107">user record</text><polygon fill="#181818" points="64.5,389.2188,54.5,393.2188,64.5,397.2188,60.5,393.2188" style="stroke:#181818;stroke-width:1.0;"/><line style="stroke:#181818;stroke-width:1.0;" x1="58.5" x2="421.5" y1="393.2188" y2="393.2188"/><text fill="#000000" font-family="sans-serif" font-size="13" lengthAdjust="spacing" textLength="42" x="70.5" y="388.3623">sucess</text><!--SRC=[VL31QiCm3BtxAqHF6wm_aCCEMIWCTXWhssaNDLQ7mB63hAJixoUxwzBqC86Du3szzoHb3GJlcGHUqXT7vx3N9F0qPKq3YHjHb7iUCIfizjzPQTW0Ph3s1YEPISwOp6kiGyK3PgferpftaOVjOr5gO3yT1bO85W6EIORFU4S3SdY04NC-9V7t9HdFg5IzdNrrMkO6TabEA1vw8KzH6KE6_-OjdxqothKDl94AqqmmbJDmFAQ5Qc712eF21mRsg9mYx4oPV4LATIriBr6gHangMqnneLGxu_mjti1pd8lYxzqBYKAcQvjNYtvZS-qYrDjUQul5eO4yzPJpMTcYEETfTS8V]--></g></svg>