<?xml version="1.0" encoding="us-ascii" standalone="no"?><svg xmlns="http://www.w3.org/2000/svg" xmlns:xlink="http://www.w3.org/1999/xlink" contentStyleType="text/css" height="900px" preserveAspectRatio="none" style="width:912px;height:900px;background:#FFFFFF;" version="1.1" viewBox="0 0 912 900" width="912px" zoomAndPan="magnify"><defs/><g><text fill="#000000" font-family="sans-serif" font-size="14" font-weight="bold" lengthAdjust="spacing" textLength="184" x="365.25" y="29.5332">User Account Registration</text><rect fill="#FFFFFF" height="638.4063" style="stroke:#181818;stroke-width:1.0;" width="10" x="292.5" y="169.9219"/><rect fill="#FFFFFF" height="375.4063" style="stroke:#181818;stroke-width:1.0;" width="10" x="511.5" y="364.2188"/><rect fill="#FFFFFF" height="238.6484" style="stroke:#181818;stroke-width:1.0;" width="10" x="696.5" y="470.625"/><rect fill="none" height="540.3516" style="stroke:#000000;stroke-width:1.5;" width="895.5" x="10" y="260.9766"/><rect fill="none" height="308.7031" style="stroke:#000000;stroke-width:1.5;" width="875.5" x="20" y="485.625"/><line style="stroke:#181818;stroke-width:0.5;stroke-dasharray:5.0,5.0;" x1="47" x2="47" y1="121.2188" y2="818.3281"/><line style="stroke:#181818;stroke-width:0.5;stroke-dasharray:5.0,5.0;" x1="297.5" x2="297.5" y1="121.2188" y2="818.3281"/><line style="stroke:#181818;stroke-width:0.5;stroke-dasharray:5.0,5.0;" x1="516.5" x2="516.5" y1="121.2188" y2="818.3281"/><line style="stroke:#181818;stroke-width:0.5;stroke-dasharray:5.0,5.0;" x1="701" x2="701" y1="121.2188" y2="818.3281"/><text fill="#000000" font-family="sans-serif" font-size="14" lengthAdjust="spacing" textLength="29" x="30" y="118.1426">User</text><ellipse cx="47.5" cy="52.1094" fill="#E2E2F0" rx="8" ry="8" style="stroke:#181818;stroke-width:0.5;"/><path d="M47.5,60.1094 L47.5,87.1094 M34.5,68.1094 L60.5,68.1094 M47.5,87.1094 L34.5,102.1094 M47.5,87.1094 L60.5,102.1094 " fill="none" style="stroke:#181818;stroke-width:0.5;"/><text fill="#000000" font-family="sans-serif" font-size="14" lengthAdjust="spacing" textLength="29" x="30" y="831.8613">User</text><ellipse cx="47.5" cy="843.4375" fill="#E2E2F0" rx="8" ry="8" style="stroke:#181818;stroke-width:0.5;"/><path d="M47.5,851.4375 L47.5,878.4375 M34.5,859.4375 L60.5,859.4375 M47.5,878.4375 L34.5,893.4375 M47.5,878.4375 L60.5,893.4375 " fill="none" style="stroke:#181818;stroke-width:0.5;"/><rect fill="#E2E2F0" height="31.6094" rx="2.5" ry="2.5" style="stroke:#181818;stroke-width:0.5;" width="60" x="267.5" y="88.6094"/><text fill="#000000" font-family="sans-serif" font-size="14" lengthAdjust="spacing" textLength="46" x="274.5" y="110.1426">System</text><rect fill="#E2E2F0" height="31.6094" rx="2.5" ry="2.5" style="stroke:#181818;stroke-width:0.5;" width="60" x="267.5" y="817.3281"/><text fill="#000000" font-family="sans-serif" font-size="14" lengthAdjust="spacing" textLength="46" x="274.5" y="838.8613">System</text><rect fill="#E2E2F0" height="31.6094" rx="2.5" ry="2.5" style="stroke:#181818;stroke-width:0.5;" width="56" x="488.5" y="88.6094"/><text fill="#000000" font-family="sans-serif" font-size="14" lengthAdjust="spacing" textLength="42" x="495.5" y="110.1426">Server</text><rect fill="#E2E2F0" height="31.6094" rx="2.5" ry="2.5" style="stroke:#181818;stroke-width:0.5;" width="56" x="488.5" y="817.3281"/><text fill="#000000" font-family="sans-serif" font-size="14" lengthAdjust="spacing" textLength="42" x="495.5" y="838.8613">Server</text><rect fill="#E2E2F0" height="31.6094" rx="2.5" ry="2.5" style="stroke:#181818;stroke-width:0.5;" width="75" x="664" y="88.6094"/><text fill="#000000" font-family="sans-serif" font-size="14" lengthAdjust="spacing" textLength="61" x="671" y="110.1426">Database</text><rect fill="#E2E2F0" height="31.6094" rx="2.5" ry="2.5" style="stroke:#181818;stroke-width:0.5;" width="75" x="664" y="817.3281"/><text fill="#000000" font-family="sans-serif" font-size="14" lengthAdjust="spacing" textLength="61" x="671" y="838.8613">Database</text><rect fill="#FFFFFF" height="638.4063" style="stroke:#181818;stroke-width:1.0;" width="10" x="292.5" y="169.9219"/><rect fill="#FFFFFF" height="375.4063" style="stroke:#181818;stroke-width:1.0;" width="10" x="511.5" y="364.2188"/><rect fill="#FFFFFF" height="238.6484" style="stroke:#181818;stroke-width:1.0;" width="10" x="696.5" y="470.625"/><polygon fill="#181818" points="280.5,165.9219,290.5,169.9219,280.5,173.9219,284.5,169.9219" style="stroke:#181818;stroke-width:1.0;"/><line style="stroke:#181818;stroke-width:1.0;" x1="47.5" x2="286.5" y1="169.9219" y2="169.9219"/><text fill="#000000" font-family="sans-serif" font-size="13" lengthAdjust="spacing" textLength="138" x="54.5" y="148.7139">Submit registration form</text><text fill="#000000" font-family="sans-serif" font-size="13" lengthAdjust="spacing" textLength="226" x="54.5" y="165.0654">(email and/or phoneNumber, password)</text><line style="stroke:#181818;stroke-width:1.0;" x1="302.5" x2="344.5" y1="232.9766" y2="232.9766"/><line style="stroke:#181818;stroke-width:1.0;" x1="344.5" x2="344.5" y1="232.9766" y2="245.9766"/><line style="stroke:#181818;stroke-width:1.0;" x1="303.5" x2="344.5" y1="245.9766" y2="245.9766"/><polygon fill="#181818" points="313.5,241.9766,303.5,245.9766,313.5,249.9766,309.5,245.9766" style="stroke:#181818;stroke-width:1.0;"/><text fill="#000000" font-family="sans-serif" font-size="13" lengthAdjust="spacing" textLength="79" x="309.5" y="195.417">Validate input</text><text fill="#000000" font-family="sans-serif" font-size="13" lengthAdjust="spacing" textLength="171" x="309.5" y="211.7686">(format check, required fields,</text><text fill="#000000" font-family="sans-serif" font-size="13" lengthAdjust="spacing" textLength="110" x="309.5" y="228.1201">password strength)</text><path d="M10,260.9766 L71,260.9766 L71,269.3281 L61,279.3281 L10,279.3281 L10,260.9766 " fill="#EEEEEE" style="stroke:#000000;stroke-width:1.5;"/><rect fill="none" height="540.3516" style="stroke:#000000;stroke-width:1.5;" width="895.5" x="10" y="260.9766"/><text fill="#000000" font-family="sans-serif" font-size="13" font-weight="bold" lengthAdjust="spacing" textLength="16" x="25" y="275.4717">alt</text><text fill="#000000" font-family="sans-serif" font-size="11" font-weight="bold" lengthAdjust="spacing" textLength="97" x="86" y="274.3955">[Validation Failed]</text><polygon fill="#181818" points="58.5,297.6797,48.5,301.6797,58.5,305.6797,54.5,301.6797" style="stroke:#181818;stroke-width:1.0;"/><line style="stroke:#181818;stroke-width:1.0;stroke-dasharray:2.0,2.0;" x1="52.5" x2="291.5" y1="301.6797" y2="301.6797"/><text fill="#000000" font-family="sans-serif" font-size="13" lengthAdjust="spacing" textLength="126" x="64.5" y="296.8232">Show validation errors</text><line style="stroke:#000000;stroke-width:1.0;stroke-dasharray:2.0,2.0;" x1="10" x2="905.5" y1="310.6797" y2="310.6797"/><text fill="#000000" font-family="sans-serif" font-size="11" font-weight="bold" lengthAdjust="spacing" textLength="106" x="15" y="322.0986">[Validation Passed]</text><polygon fill="#181818" points="499.5,360.2188,509.5,364.2188,499.5,368.2188,503.5,364.2188" style="stroke:#181818;stroke-width:1.0;"/><line style="stroke:#181818;stroke-width:1.0;" x1="302.5" x2="505.5" y1="364.2188" y2="364.2188"/><text fill="#000000" font-family="sans-serif" font-size="13" lengthAdjust="spacing" textLength="88" x="309.5" y="343.0107">Send user data</text><text fill="#000000" font-family="sans-serif" font-size="13" lengthAdjust="spacing" textLength="190" x="309.5" y="359.3623">(email, phoneNumber, password)</text><line style="stroke:#181818;stroke-width:1.0;" x1="521.5" x2="563.5" y1="410.9219" y2="410.9219"/><line style="stroke:#181818;stroke-width:1.0;" x1="563.5" x2="563.5" y1="410.9219" y2="423.9219"/><line style="stroke:#181818;stroke-width:1.0;" x1="522.5" x2="563.5" y1="423.9219" y2="423.9219"/><polygon fill="#181818" points="532.5,419.9219,522.5,423.9219,532.5,427.9219,528.5,423.9219" style="stroke:#181818;stroke-width:1.0;"/><text fill="#000000" font-family="sans-serif" font-size="13" lengthAdjust="spacing" textLength="79" x="528.5" y="389.7139">Assign userId</text><text fill="#000000" font-family="sans-serif" font-size="13" lengthAdjust="spacing" textLength="107" x="528.5" y="406.0654">Assign default role</text><polygon fill="#181818" points="684.5,466.625,694.5,470.625,684.5,474.625,688.5,470.625" style="stroke:#181818;stroke-width:1.0;"/><line style="stroke:#181818;stroke-width:1.0;" x1="521.5" x2="690.5" y1="470.625" y2="470.625"/><text fill="#000000" font-family="sans-serif" font-size="13" lengthAdjust="spacing" textLength="136" x="528.5" y="449.417">Check if account exists</text><text fill="#000000" font-family="sans-serif" font-size="13" lengthAdjust="spacing" textLength="156" x="528.5" y="465.7686">(by email or phoneNumber)</text><path d="M20,485.625 L81,485.625 L81,493.9766 L71,503.9766 L20,503.9766 L20,485.625 " fill="#EEEEEE" style="stroke:#000000;stroke-width:1.5;"/><rect fill="none" height="308.7031" style="stroke:#000000;stroke-width:1.5;" width="875.5" x="20" y="485.625"/><text fill="#000000" font-family="sans-serif" font-size="13" font-weight="bold" lengthAdjust="spacing" textLength="16" x="35" y="500.1201">alt</text><text fill="#000000" font-family="sans-serif" font-size="11" font-weight="bold" lengthAdjust="spacing" textLength="134" x="96" y="499.0439">[Account Already Exists]</text><polygon fill="#181818" points="532.5,522.3281,522.5,526.3281,532.5,530.3281,528.5,526.3281" style="stroke:#181818;stroke-width:1.0;"/><line style="stroke:#181818;stroke-width:1.0;stroke-dasharray:2.0,2.0;" x1="526.5" x2="695.5" y1="526.3281" y2="526.3281"/><text fill="#000000" font-family="sans-serif" font-size="13" lengthAdjust="spacing" textLength="89" x="538.5" y="521.4717">Duplicate found</text><polygon fill="#181818" points="313.5,552.6797,303.5,556.6797,313.5,560.6797,309.5,556.6797" style="stroke:#181818;stroke-width:1.0;"/><line style="stroke:#181818;stroke-width:1.0;stroke-dasharray:2.0,2.0;" x1="307.5" x2="510.5" y1="556.6797" y2="556.6797"/><text fill="#000000" font-family="sans-serif" font-size="13" lengthAdjust="spacing" textLength="68" x="319.5" y="551.8232">409 Conflict</text><polygon fill="#181818" points="58.5,583.0313,48.5,587.0313,58.5,591.0313,54.5,587.0313" style="stroke:#181818;stroke-width:1.0;"/><line style="stroke:#181818;stroke-width:1.0;stroke-dasharray:2.0,2.0;" x1="52.5" x2="291.5" y1="587.0313" y2="587.0313"/><text fill="#000000" font-family="sans-serif" font-size="13" lengthAdjust="spacing" textLength="143" x="64.5" y="582.1748">"Account already exists"</text><line style="stroke:#000000;stroke-width:1.0;stroke-dasharray:2.0,2.0;" x1="20" x2="895.5" y1="596.0313" y2="596.0313"/><text fill="#000000" font-family="sans-serif" font-size="11" font-weight="bold" lengthAdjust="spacing" textLength="134" x="25" y="607.4502">[Account Does Not Exist]</text><line style="stroke:#181818;stroke-width:1.0;" x1="706.5" x2="748.5" y1="665.9219" y2="665.9219"/><line style="stroke:#181818;stroke-width:1.0;" x1="748.5" x2="748.5" y1="665.9219" y2="678.9219"/><line style="stroke:#181818;stroke-width:1.0;" x1="707.5" x2="748.5" y1="678.9219" y2="678.9219"/><polygon fill="#181818" points="717.5,674.9219,707.5,678.9219,717.5,682.9219,713.5,678.9219" style="stroke:#181818;stroke-width:1.0;"/><text fill="#000000" font-family="sans-serif" font-size="13" lengthAdjust="spacing" textLength="136" x="713.5" y="628.3623">Create new User record</text><text fill="#000000" font-family="sans-serif" font-size="13" lengthAdjust="spacing" textLength="170" x="713.5" y="644.7139">(userId, email, phoneNumber,</text><text fill="#000000" font-family="sans-serif" font-size="13" lengthAdjust="spacing" textLength="132" x="713.5" y="661.0654">hashedPassword, role)</text><polygon fill="#181818" points="532.5,705.2734,522.5,709.2734,532.5,713.2734,528.5,709.2734" style="stroke:#181818;stroke-width:1.0;"/><line style="stroke:#181818;stroke-width:1.0;stroke-dasharray:2.0,2.0;" x1="526.5" x2="700.5" y1="709.2734" y2="709.2734"/><text fill="#000000" font-family="sans-serif" font-size="13" lengthAdjust="spacing" textLength="123" x="538.5" y="704.417">Confirmation + userId</text><polygon fill="#181818" points="313.5,735.625,303.5,739.625,313.5,743.625,309.5,739.625" style="stroke:#181818;stroke-width:1.0;"/><line style="stroke:#181818;stroke-width:1.0;stroke-dasharray:2.0,2.0;" x1="307.5" x2="515.5" y1="739.625" y2="739.625"/><text fill="#000000" font-family="sans-serif" font-size="13" lengthAdjust="spacing" textLength="70" x="319.5" y="734.7686">201 Created</text><polygon fill="#181818" points="58.5,782.3281,48.5,786.3281,58.5,790.3281,54.5,786.3281" style="stroke:#181818;stroke-width:1.0;"/><line style="stroke:#181818;stroke-width:1.0;stroke-dasharray:2.0,2.0;" x1="52.5" x2="291.5" y1="786.3281" y2="786.3281"/><text fill="#000000" font-family="sans-serif" font-size="13" lengthAdjust="spacing" textLength="135" x="64.5" y="765.1201">Registration successful</text><text fill="#000000" font-family="sans-serif" font-size="13" lengthAdjust="spacing" textLength="172" x="64.5" y="781.4717">(redirect to login or auto-login)</text><!--SRC=[TLDDRzim3BthLn0vBPYBTSCkww50Kc_0BaMnOZlbmaXqB4oHF7quoxyV9Tj9t6G64iGX-VZu7XbrD0G_0tbOIUcIZV23TZf4Zr4xAr16vqjSTEYZbhf3pbcy7aEa_G8m0Fzy4oFVanzYlf_7QeounK0bMg-5AAtl7ZFA0xocxLv7y1SCe75-lx7lQ8_Q05hrWVbqhRFqdFPRyXLq6CB1URNCP7MFaGebmLydu5zejCeHRRiK6IwZOWJPalnTSSC_INjIq6WoAbGREu42yo2xY-rI23Hn0ih4lZ4XKWBuAQsuLnw6fsZT0Vfp8ddlV11a0btMlt2Bo_h7h1PNarMGiYgSXzFarVzcpkNdkLdk0T3t9y1L27fd2-HtjR7Zgw864m_adQ5PJRr-WASi2-Y6aOUTeBziI60osoCCJinTUCCZ6rl-u0RJMgsC9rH7-5gWIZW_zReeLvZMgJDQPe26IzGffp2RhFny_mMUd6quCvupPWOiffuuzXpeBqfwiM5Ag1q5U7PnO3KZDIh10Cp7qc4u4a-IPMSX1ZahkE7EnhOOMb8leqbL4NbvS-GyYSwhc3VY_MZIALFHbQHNUdow_pYol5btMebhcIuF7KAIaa9eak7X-1Ju76I4wC2udRRPRapHtPMtOHJUKv4_uh8R7zu_]--></g></svg>