<?xml version="1.0" encoding="us-ascii" standalone="no"?><svg xmlns="http://www.w3.org/2000/svg" xmlns:xlink="http://www.w3.org/1999/xlink" contentStyleType="text/css" height="792px" preserveAspectRatio="none" style="width:1124px;height:792px;background:#FFFFFF;" version="1.1" viewBox="0 0 1124 792" width="1124px" zoomAndPan="magnify"><defs/><g><text fill="#000000" font-family="sans-serif" font-size="14" font-weight="bold" lengthAdjust="spacing" textLength="106" x="510" y="29.5332">Reserve Ticket</text><rect fill="#FFFFFF" height="546.8672" style="stroke:#181818;stroke-width:1.0;" width="10" x="340.5" y="153.5703"/><rect fill="#FFFFFF" height="422.1094" style="stroke:#181818;stroke-width:1.0;" width="10" x="607.5" y="216.625"/><rect fill="#FFFFFF" height="90.0547" style="stroke:#181818;stroke-width:1.0;" width="10" x="794.5" y="408.5703"/><rect fill="#FFFFFF" height="30.3516" style="stroke:#181818;stroke-width:1.0;" width="10" x="1054.5" y="561.6797"/><rect fill="none" height="402.1094" style="stroke:#000000;stroke-width:1.5;" width="1107" x="10" y="291.3281"/><line style="stroke:#181818;stroke-width:0.5;stroke-dasharray:5.0,5.0;" x1="53" x2="53" y1="121.2188" y2="710.4375"/><line style="stroke:#181818;stroke-width:0.5;stroke-dasharray:5.0,5.0;" x1="345.5" x2="345.5" y1="121.2188" y2="710.4375"/><line style="stroke:#181818;stroke-width:0.5;stroke-dasharray:5.0,5.0;" x1="612.5" x2="612.5" y1="121.2188" y2="710.4375"/><line style="stroke:#181818;stroke-width:0.5;stroke-dasharray:5.0,5.0;" x1="799" x2="799" y1="121.2188" y2="710.4375"/><line style="stroke:#181818;stroke-width:0.5;stroke-dasharray:5.0,5.0;" x1="1059" x2="1059" y1="121.2188" y2="710.4375"/><text fill="#000000" font-family="sans-serif" font-size="14" lengthAdjust="spacing" textLength="61" x="20" y="118.1426">Customer</text><ellipse cx="53.5" cy="52.1094" fill="#E2E2F0" rx="8" ry="8" style="stroke:#181818;stroke-width:0.5;"/><path d="M53.5,60.1094 L53.5,87.1094 M40.5,68.1094 L66.5,68.1094 M53.5,87.1094 L40.5,102.1094 M53.5,87.1094 L66.5,102.1094 " fill="none" style="stroke:#181818;stroke-width:0.5;"/><text fill="#000000" font-family="sans-serif" font-size="14" lengthAdjust="spacing" textLength="61" x="20" y="723.9707">Customer</text><ellipse cx="53.5" cy="735.5469" fill="#E2E2F0" rx="8" ry="8" style="stroke:#181818;stroke-width:0.5;"/><path d="M53.5,743.5469 L53.5,770.5469 M40.5,751.5469 L66.5,751.5469 M53.5,770.5469 L40.5,785.5469 M53.5,770.5469 L66.5,785.5469 " fill="none" style="stroke:#181818;stroke-width:0.5;"/><rect fill="#E2E2F0" height="31.6094" rx="2.5" ry="2.5" style="stroke:#181818;stroke-width:0.5;" width="60" x="315.5" y="88.6094"/><text fill="#000000" font-family="sans-serif" font-size="14" lengthAdjust="spacing" textLength="46" x="322.5" y="110.1426">System</text><rect fill="#E2E2F0" height="31.6094" rx="2.5" ry="2.5" style="stroke:#181818;stroke-width:0.5;" width="60" x="315.5" y="709.4375"/><text fill="#000000" font-family="sans-serif" font-size="14" lengthAdjust="spacing" textLength="46" x="322.5" y="730.9707">System</text><rect fill="#E2E2F0" height="31.6094" rx="2.5" ry="2.5" style="stroke:#181818;stroke-width:0.5;" width="56" x="584.5" y="88.6094"/><text fill="#000000" font-family="sans-serif" font-size="14" lengthAdjust="spacing" textLength="42" x="591.5" y="110.1426">Server</text><rect fill="#E2E2F0" height="31.6094" rx="2.5" ry="2.5" style="stroke:#181818;stroke-width:0.5;" width="56" x="584.5" y="709.4375"/><text fill="#000000" font-family="sans-serif" font-size="14" lengthAdjust="spacing" textLength="42" x="591.5" y="730.9707">Server</text><rect fill="#E2E2F0" height="31.6094" rx="2.5" ry="2.5" style="stroke:#181818;stroke-width:0.5;" width="75" x="762" y="88.6094"/><text fill="#000000" font-family="sans-serif" font-size="14" lengthAdjust="spacing" textLength="61" x="769" y="110.1426">Database</text><rect fill="#E2E2F0" height="31.6094" rx="2.5" ry="2.5" style="stroke:#181818;stroke-width:0.5;" width="75" x="762" y="709.4375"/><text fill="#000000" font-family="sans-serif" font-size="14" lengthAdjust="spacing" textLength="61" x="769" y="730.9707">Database</text><rect fill="#E2E2F0" height="31.6094" rx="2.5" ry="2.5" style="stroke:#181818;stroke-width:0.5;" width="95" x="1012" y="88.6094"/><text fill="#000000" font-family="sans-serif" font-size="14" lengthAdjust="spacing" textLength="81" x="1019" y="110.1426">EmailService</text><rect fill="#E2E2F0" height="31.6094" rx="2.5" ry="2.5" style="stroke:#181818;stroke-width:0.5;" width="95" x="1012" y="709.4375"/><text fill="#000000" font-family="sans-serif" font-size="14" lengthAdjust="spacing" textLength="81" x="1019" y="730.9707">EmailService</text><rect fill="#FFFFFF" height="546.8672" style="stroke:#181818;stroke-width:1.0;" width="10" x="340.5" y="153.5703"/><rect fill="#FFFFFF" height="422.1094" style="stroke:#181818;stroke-width:1.0;" width="10" x="607.5" y="216.625"/><rect fill="#FFFFFF" height="90.0547" style="stroke:#181818;stroke-width:1.0;" width="10" x="794.5" y="408.5703"/><rect fill="#FFFFFF" height="30.3516" style="stroke:#181818;stroke-width:1.0;" width="10" x="1054.5" y="561.6797"/><polygon fill="#181818" points="328.5,149.5703,338.5,153.5703,328.5,157.5703,332.5,153.5703" style="stroke:#181818;stroke-width:1.0;"/><line style="stroke:#181818;stroke-width:1.0;" x1="53.5" x2="334.5" y1="153.5703" y2="153.5703"/><text fill="#000000" font-family="sans-serif" font-size="13" lengthAdjust="spacing" textLength="268" x="60.5" y="148.7139">reserveTicket(eventId, location, category, date)</text><polygon fill="#181818" points="595.5,212.625,605.5,216.625,595.5,220.625,599.5,216.625" style="stroke:#181818;stroke-width:1.0;"/><line style="stroke:#181818;stroke-width:1.0;" x1="350.5" x2="601.5" y1="216.625" y2="216.625"/><text fill="#000000" font-family="sans-serif" font-size="13" lengthAdjust="spacing" textLength="133" x="357.5" y="179.0654">POST /api/reservations</text><text fill="#000000" font-family="sans-serif" font-size="13" lengthAdjust="spacing" textLength="157" x="357.5" y="195.417">(userId, eventId, userEmail,</text><text fill="#000000" font-family="sans-serif" font-size="13" lengthAdjust="spacing" textLength="238" x="357.5" y="211.7686">eventLocation, eventCategory, eventDate)</text><line style="stroke:#181818;stroke-width:1.0;" x1="617.5" x2="659.5" y1="263.3281" y2="263.3281"/><line style="stroke:#181818;stroke-width:1.0;" x1="659.5" x2="659.5" y1="263.3281" y2="276.3281"/><line style="stroke:#181818;stroke-width:1.0;" x1="618.5" x2="659.5" y1="276.3281" y2="276.3281"/><polygon fill="#181818" points="628.5,272.3281,618.5,276.3281,628.5,280.3281,624.5,276.3281" style="stroke:#181818;stroke-width:1.0;"/><text fill="#000000" font-family="sans-serif" font-size="13" lengthAdjust="spacing" textLength="126" x="624.5" y="242.1201">Parse &amp; validate body</text><text fill="#000000" font-family="sans-serif" font-size="13" lengthAdjust="spacing" textLength="162" x="624.5" y="258.4717">(userId and eventId required)</text><path d="M10,291.3281 L71,291.3281 L71,299.6797 L61,309.6797 L10,309.6797 L10,291.3281 " fill="#EEEEEE" style="stroke:#000000;stroke-width:1.5;"/><rect fill="none" height="402.1094" style="stroke:#000000;stroke-width:1.5;" width="1107" x="10" y="291.3281"/><text fill="#000000" font-family="sans-serif" font-size="13" font-weight="bold" lengthAdjust="spacing" textLength="16" x="25" y="305.8232">alt</text><text fill="#000000" font-family="sans-serif" font-size="11" font-weight="bold" lengthAdjust="spacing" textLength="150" x="86" y="304.7471">[Missing userId or eventId]</text><polygon fill="#181818" points="361.5,328.0313,351.5,332.0313,361.5,336.0313,357.5,332.0313" style="stroke:#181818;stroke-width:1.0;"/><line style="stroke:#181818;stroke-width:1.0;stroke-dasharray:2.0,2.0;" x1="355.5" x2="606.5" y1="332.0313" y2="332.0313"/><text fill="#000000" font-family="sans-serif" font-size="13" lengthAdjust="spacing" textLength="100" x="367.5" y="327.1748">400 Bad Request</text><polygon fill="#181818" points="64.5,358.3828,54.5,362.3828,64.5,366.3828,60.5,362.3828" style="stroke:#181818;stroke-width:1.0;"/><line style="stroke:#181818;stroke-width:1.0;stroke-dasharray:2.0,2.0;" x1="58.5" x2="339.5" y1="362.3828" y2="362.3828"/><text fill="#000000" font-family="sans-serif" font-size="13" lengthAdjust="spacing" textLength="186" x="70.5" y="357.5264">"userId and eventId are required"</text><line style="stroke:#000000;stroke-width:1.0;stroke-dasharray:2.0,2.0;" x1="10" x2="1117" y1="371.3828" y2="371.3828"/><text fill="#000000" font-family="sans-serif" font-size="11" font-weight="bold" lengthAdjust="spacing" textLength="88" x="15" y="382.8018">[Fields Present]</text><polygon fill="#181818" points="782.5,404.5703,792.5,408.5703,782.5,412.5703,786.5,408.5703" style="stroke:#181818;stroke-width:1.0;"/><line style="stroke:#181818;stroke-width:1.0;" x1="617.5" x2="788.5" y1="408.5703" y2="408.5703"/><text fill="#000000" font-family="sans-serif" font-size="13" lengthAdjust="spacing" textLength="158" x="624.5" y="403.7139">addReservation(reservation)</text><line style="stroke:#181818;stroke-width:1.0;" x1="804.5" x2="846.5" y1="455.2734" y2="455.2734"/><line style="stroke:#181818;stroke-width:1.0;" x1="846.5" x2="846.5" y1="455.2734" y2="468.2734"/><line style="stroke:#181818;stroke-width:1.0;" x1="805.5" x2="846.5" y1="468.2734" y2="468.2734"/><polygon fill="#181818" points="815.5,464.2734,805.5,468.2734,815.5,472.2734,811.5,468.2734" style="stroke:#181818;stroke-width:1.0;"/><text fill="#000000" font-family="sans-serif" font-size="13" lengthAdjust="spacing" textLength="144" x="811.5" y="434.0654">Create reservation record</text><text fill="#000000" font-family="sans-serif" font-size="13" lengthAdjust="spacing" textLength="236" x="811.5" y="450.417">(generate reservationId, store reservedAt)</text><polygon fill="#181818" points="628.5,494.625,618.5,498.625,628.5,502.625,624.5,498.625" style="stroke:#181818;stroke-width:1.0;"/><line style="stroke:#181818;stroke-width:1.0;stroke-dasharray:2.0,2.0;" x1="622.5" x2="798.5" y1="498.625" y2="498.625"/><text fill="#000000" font-family="sans-serif" font-size="13" lengthAdjust="spacing" textLength="72" x="634.5" y="493.7686">reservationId</text><polygon fill="#181818" points="1042.5,557.6797,1052.5,561.6797,1042.5,565.6797,1046.5,561.6797" style="stroke:#181818;stroke-width:1.0;"/><line style="stroke:#181818;stroke-width:1.0;" x1="617.5" x2="1048.5" y1="561.6797" y2="561.6797"/><text fill="#000000" font-family="sans-serif" font-size="13" lengthAdjust="spacing" textLength="147" x="624.5" y="524.1201">sendBookingConfirmation</text><text fill="#000000" font-family="sans-serif" font-size="13" lengthAdjust="spacing" textLength="153" x="624.5" y="540.4717">(userEmail, eventLocation,</text><text fill="#000000" font-family="sans-serif" font-size="13" lengthAdjust="spacing" textLength="136" x="624.5" y="556.8232">eventCategory, dateStr)</text><polygon fill="#181818" points="64.5,588.0313,54.5,592.0313,64.5,596.0313,60.5,592.0313" style="stroke:#181818;stroke-width:1.0;"/><line style="stroke:#181818;stroke-width:1.0;stroke-dasharray:2.0,2.0;" x1="58.5" x2="1058.5" y1="592.0313" y2="592.0313"/><text fill="#000000" font-family="sans-serif" font-size="13" lengthAdjust="spacing" textLength="156" x="70.5" y="587.1748">Booking confirmation email</text><polygon fill="#181818" points="361.5,634.7344,351.5,638.7344,361.5,642.7344,357.5,638.7344" style="stroke:#181818;stroke-width:1.0;"/><line style="stroke:#181818;stroke-width:1.0;stroke-dasharray:2.0,2.0;" x1="355.5" x2="611.5" y1="638.7344" y2="638.7344"/><text fill="#000000" font-family="sans-serif" font-size="13" lengthAdjust="spacing" textLength="70" x="367.5" y="617.5264">201 Created</text><text fill="#000000" font-family="sans-serif" font-size="13" lengthAdjust="spacing" textLength="80" x="367.5" y="633.8779">{reservationId}</text><polygon fill="#181818" points="64.5,681.4375,54.5,685.4375,64.5,689.4375,60.5,685.4375" style="stroke:#181818;stroke-width:1.0;"/><line style="stroke:#181818;stroke-width:1.0;stroke-dasharray:2.0,2.0;" x1="58.5" x2="339.5" y1="685.4375" y2="685.4375"/><text fill="#000000" font-family="sans-serif" font-size="13" lengthAdjust="spacing" textLength="133" x="70.5" y="664.2295">Reservation successful</text><text fill="#000000" font-family="sans-serif" font-size="13" lengthAdjust="spacing" textLength="114" x="70.5" y="680.5811">(show reservationId)</text><!--SRC=[RLDDJ-Cm4BtxLunwG8tK5MN5AGSachBIIY0GvSZ5s4FN8hNBsCcgMkr_P-ma9WdquDhpzMRUcmGJQeH7z4WjmfDHRnY4a2euWghnmHsGn55ICCeSfGsms9rymCC2f0U-pdon2dK-QgU-hGpoHNfCtkrcwhmvI5F7RAEwW6GGOcW1Vbn5j1AewxHhT8ajsl1Rhw1sIWRZx0hu7_UEJYlGV2lYAARbMsfMy95AKLl2m_tk2SxbqPntHLC1_soN3RzYqLmz6b93gsURZBSPBZshZ9cUsnamCo7u-0IMv17Ee9MrYKt2YzEdZ0lIwW6Qntrl3A4kM9Cwm9tntjWzz96iKHyeW7y9Oo3gShs6ZTGixNk3FdG1SNeE65WjOV4DfYJCk0iXiEPcVncijOU7o9Jb1SbmLonb2LBhnqyEboC-YnIQZam8Yn_VsysGNX56-oYDxygHPbBsQ95ctgW9Jq234VLrA7BDWUP9Gl9g7FSm7YAfMm8FfpVElJ77bRElXWuflTUcMm6ORa2_4TLaxNQ1YkdCtJv7KxhDPEWnGOr00NFAgE_-k_WYzy_rHKyZa_PlClh_UOsuaD-lmqX4y8rIwFrhK_Fu_e_xEoMq4CoL4EEo9_y1]--></g></svg>