<?xml version="1.0" encoding="us-ascii" standalone="no"?><svg xmlns="http://www.w3.org/2000/svg" xmlns:xlink="http://www.w3.org/1999/xlink" contentStyleType="text/css" height="714px" preserveAspectRatio="none" style="width:748px;height:714px;background:#FFFFFF;" version="1.1" viewBox="0 0 748 714" width="748px" zoomAndPan="magnify"><defs/><g><text fill="#000000" font-family="sans-serif" font-size="14" font-weight="bold" lengthAdjust="spacing" textLength="131" x="309.5" y="29.5332">View Reservations</text><rect fill="#FFFFFF" height="468.5938" style="stroke:#181818;stroke-width:1.0;" width="10" x="225.5" y="153.5703"/><rect fill="#FFFFFF" height="248.6484" style="stroke:#181818;stroke-width:1.0;" width="10" x="471.5" y="183.9219"/><rect fill="#FFFFFF" height="162.5938" style="stroke:#181818;stroke-width:1.0;" width="10" x="678.5" y="239.625"/><rect fill="#FFFFFF" height="30.3516" style="stroke:#181818;stroke-width:1.0;" width="10" x="678.5" y="516.1094"/><rect fill="none" height="416.2422" style="stroke:#000000;stroke-width:1.5;" width="731" x="10" y="198.9219"/><rect fill="none" height="216.2969" style="stroke:#000000;stroke-width:1.5;" width="711" x="20" y="254.625"/><line style="stroke:#181818;stroke-width:0.5;stroke-dasharray:5.0,5.0;" x1="47" x2="47" y1="121.2188" y2="632.1641"/><line style="stroke:#181818;stroke-width:0.5;stroke-dasharray:5.0,5.0;" x1="230.5" x2="230.5" y1="121.2188" y2="632.1641"/><line style="stroke:#181818;stroke-width:0.5;stroke-dasharray:5.0,5.0;" x1="476.5" x2="476.5" y1="121.2188" y2="632.1641"/><line style="stroke:#181818;stroke-width:0.5;stroke-dasharray:5.0,5.0;" x1="683" x2="683" y1="121.2188" y2="632.1641"/><text fill="#000000" font-family="sans-serif" font-size="14" lengthAdjust="spacing" textLength="29" x="30" y="118.1426">User</text><ellipse cx="47.5" cy="52.1094" fill="#E2E2F0" rx="8" ry="8" style="stroke:#181818;stroke-width:0.5;"/><path d="M47.5,60.1094 L47.5,87.1094 M34.5,68.1094 L60.5,68.1094 M47.5,87.1094 L34.5,102.1094 M47.5,87.1094 L60.5,102.1094 " fill="none" style="stroke:#181818;stroke-width:0.5;"/><text fill="#000000" font-family="sans-serif" font-size="14" lengthAdjust="spacing" textLength="29" x="30" y="645.6973">User</text><ellipse cx="47.5" cy="657.2734" fill="#E2E2F0" rx="8" ry="8" style="stroke:#181818;stroke-width:0.5;"/><path d="M47.5,665.2734 L47.5,692.2734 M34.5,673.2734 L60.5,673.2734 M47.5,692.2734 L34.5,707.2734 M47.5,692.2734 L60.5,707.2734 " fill="none" style="stroke:#181818;stroke-width:0.5;"/><rect fill="#E2E2F0" height="31.6094" rx="2.5" ry="2.5" style="stroke:#181818;stroke-width:0.5;" width="60" x="200.5" y="88.6094"/><text fill="#000000" font-family="sans-serif" font-size="14" lengthAdjust="spacing" textLength="46" x="207.5" y="110.1426">System</text><rect fill="#E2E2F0" height="31.6094" rx="2.5" ry="2.5" style="stroke:#181818;stroke-width:0.5;" width="60" x="200.5" y="631.1641"/><text fill="#000000" font-family="sans-serif" font-size="14" lengthAdjust="spacing" textLength="46" x="207.5" y="652.6973">System</text><rect fill="#E2E2F0" height="31.6094" rx="2.5" ry="2.5" style="stroke:#181818;stroke-width:0.5;" width="56" x="448.5" y="88.6094"/><text fill="#000000" font-family="sans-serif" font-size="14" lengthAdjust="spacing" textLength="42" x="455.5" y="110.1426">Server</text><rect fill="#E2E2F0" height="31.6094" rx="2.5" ry="2.5" style="stroke:#181818;stroke-width:0.5;" width="56" x="448.5" y="631.1641"/><text fill="#000000" font-family="sans-serif" font-size="14" lengthAdjust="spacing" textLength="42" x="455.5" y="652.6973">Server</text><rect fill="#E2E2F0" height="31.6094" rx="2.5" ry="2.5" style="stroke:#181818;stroke-width:0.5;" width="75" x="646" y="88.6094"/><text fill="#000000" font-family="sans-serif" font-size="14" lengthAdjust="spacing" textLength="61" x="653" y="110.1426">Database</text><rect fill="#E2E2F0" height="31.6094" rx="2.5" ry="2.5" style="stroke:#181818;stroke-width:0.5;" width="75" x="646" y="631.1641"/><text fill="#000000" font-family="sans-serif" font-size="14" lengthAdjust="spacing" textLength="61" x="653" y="652.6973">Database</text><rect fill="#FFFFFF" height="468.5938" style="stroke:#181818;stroke-width:1.0;" width="10" x="225.5" y="153.5703"/><rect fill="#FFFFFF" height="248.6484" style="stroke:#181818;stroke-width:1.0;" width="10" x="471.5" y="183.9219"/><rect fill="#FFFFFF" height="162.5938" style="stroke:#181818;stroke-width:1.0;" width="10" x="678.5" y="239.625"/><rect fill="#FFFFFF" height="30.3516" style="stroke:#181818;stroke-width:1.0;" width="10" x="678.5" y="516.1094"/><polygon fill="#181818" points="213.5,149.5703,223.5,153.5703,213.5,157.5703,217.5,153.5703" style="stroke:#181818;stroke-width:1.0;"/><line style="stroke:#181818;stroke-width:1.0;" x1="47.5" x2="219.5" y1="153.5703" y2="153.5703"/><text fill="#000000" font-family="sans-serif" font-size="13" lengthAdjust="spacing" textLength="106" x="54.5" y="148.7139">loadReservations()</text><polygon fill="#181818" points="459.5,179.9219,469.5,183.9219,459.5,187.9219,463.5,183.9219" style="stroke:#181818;stroke-width:1.0;"/><line style="stroke:#181818;stroke-width:1.0;" x1="235.5" x2="465.5" y1="183.9219" y2="183.9219"/><text fill="#000000" font-family="sans-serif" font-size="13" lengthAdjust="spacing" textLength="217" x="242.5" y="179.0654">GET /api/reservations?userId={userId}</text><path d="M10,198.9219 L71,198.9219 L71,207.2734 L61,217.2734 L10,217.2734 L10,198.9219 " fill="#EEEEEE" style="stroke:#000000;stroke-width:1.5;"/><rect fill="none" height="416.2422" style="stroke:#000000;stroke-width:1.5;" width="731" x="10" y="198.9219"/><text fill="#000000" font-family="sans-serif" font-size="13" font-weight="bold" lengthAdjust="spacing" textLength="16" x="25" y="213.417">alt</text><text fill="#000000" font-family="sans-serif" font-size="11" font-weight="bold" lengthAdjust="spacing" textLength="96" x="86" y="212.3408">[userId provided]</text><polygon fill="#181818" points="666.5,235.625,676.5,239.625,666.5,243.625,670.5,239.625" style="stroke:#181818;stroke-width:1.0;"/><line style="stroke:#181818;stroke-width:1.0;" x1="481.5" x2="672.5" y1="239.625" y2="239.625"/><text fill="#000000" font-family="sans-serif" font-size="13" lengthAdjust="spacing" textLength="178" x="488.5" y="234.7686">getReservationsByUser(userId)</text><path d="M20,254.625 L81,254.625 L81,262.9766 L71,272.9766 L20,272.9766 L20,254.625 " fill="#EEEEEE" style="stroke:#000000;stroke-width:1.5;"/><rect fill="none" height="216.2969" style="stroke:#000000;stroke-width:1.5;" width="711" x="20" y="254.625"/><text fill="#000000" font-family="sans-serif" font-size="13" font-weight="bold" lengthAdjust="spacing" textLength="16" x="35" y="269.1201">alt</text><text fill="#000000" font-family="sans-serif" font-size="11" font-weight="bold" lengthAdjust="spacing" textLength="135" x="96" y="268.0439">[No Reservations Found]</text><polygon fill="#181818" points="492.5,291.3281,482.5,295.3281,492.5,299.3281,488.5,295.3281" style="stroke:#181818;stroke-width:1.0;"/><line style="stroke:#181818;stroke-width:1.0;stroke-dasharray:2.0,2.0;" x1="486.5" x2="677.5" y1="295.3281" y2="295.3281"/><text fill="#000000" font-family="sans-serif" font-size="13" lengthAdjust="spacing" textLength="74" x="498.5" y="290.4717">Empty result</text><polygon fill="#181818" points="246.5,321.6797,236.5,325.6797,246.5,329.6797,242.5,325.6797" style="stroke:#181818;stroke-width:1.0;"/><line style="stroke:#181818;stroke-width:1.0;stroke-dasharray:2.0,2.0;" x1="240.5" x2="470.5" y1="325.6797" y2="325.6797"/><text fill="#000000" font-family="sans-serif" font-size="13" lengthAdjust="spacing" textLength="44" x="252.5" y="320.8232">200 OK</text><polygon fill="#181818" points="58.5,352.0313,48.5,356.0313,58.5,360.0313,54.5,356.0313" style="stroke:#181818;stroke-width:1.0;"/><line style="stroke:#181818;stroke-width:1.0;stroke-dasharray:2.0,2.0;" x1="52.5" x2="224.5" y1="356.0313" y2="356.0313"/><text fill="#000000" font-family="sans-serif" font-size="13" lengthAdjust="spacing" textLength="154" x="64.5" y="351.1748">"You have no reservations"</text><line style="stroke:#000000;stroke-width:1.0;stroke-dasharray:2.0,2.0;" x1="20" x2="731" y1="365.0313" y2="365.0313"/><text fill="#000000" font-family="sans-serif" font-size="11" font-weight="bold" lengthAdjust="spacing" textLength="118" x="25" y="376.4502">[Reservations Found]</text><polygon fill="#181818" points="492.5,398.2188,482.5,402.2188,492.5,406.2188,488.5,402.2188" style="stroke:#181818;stroke-width:1.0;"/><line style="stroke:#181818;stroke-width:1.0;stroke-dasharray:2.0,2.0;" x1="486.5" x2="682.5" y1="402.2188" y2="402.2188"/><text fill="#000000" font-family="sans-serif" font-size="13" lengthAdjust="spacing" textLength="137" x="498.5" y="397.3623">List of user reservations</text><polygon fill="#181818" points="246.5,428.5703,236.5,432.5703,246.5,436.5703,242.5,432.5703" style="stroke:#181818;stroke-width:1.0;"/><line style="stroke:#181818;stroke-width:1.0;stroke-dasharray:2.0,2.0;" x1="240.5" x2="475.5" y1="432.5703" y2="432.5703"/><text fill="#000000" font-family="sans-serif" font-size="13" lengthAdjust="spacing" textLength="125" x="252.5" y="427.7139">200 OK [reservations]</text><polygon fill="#181818" points="58.5,458.9219,48.5,462.9219,58.5,466.9219,54.5,462.9219" style="stroke:#181818;stroke-width:1.0;"/><line style="stroke:#181818;stroke-width:1.0;stroke-dasharray:2.0,2.0;" x1="52.5" x2="224.5" y1="462.9219" y2="462.9219"/><text fill="#000000" font-family="sans-serif" font-size="13" lengthAdjust="spacing" textLength="137" x="64.5" y="458.0654">Display reservations list</text><line style="stroke:#000000;stroke-width:1.0;stroke-dasharray:2.0,2.0;" x1="10" x2="741" y1="478.9219" y2="478.9219"/><text fill="#000000" font-family="sans-serif" font-size="11" font-weight="bold" lengthAdjust="spacing" textLength="113" x="15" y="490.3408">[No userId provided]</text><polygon fill="#181818" points="666.5,512.1094,676.5,516.1094,666.5,520.1094,670.5,516.1094" style="stroke:#181818;stroke-width:1.0;"/><line style="stroke:#181818;stroke-width:1.0;" x1="476.5" x2="672.5" y1="516.1094" y2="516.1094"/><text fill="#000000" font-family="sans-serif" font-size="13" lengthAdjust="spacing" textLength="115" x="483.5" y="511.2529">getAllReservations()</text><polygon fill="#181818" points="487.5,542.4609,477.5,546.4609,487.5,550.4609,483.5,546.4609" style="stroke:#181818;stroke-width:1.0;"/><line style="stroke:#181818;stroke-width:1.0;stroke-dasharray:2.0,2.0;" x1="481.5" x2="682.5" y1="546.4609" y2="546.4609"/><text fill="#000000" font-family="sans-serif" font-size="13" lengthAdjust="spacing" textLength="88" x="493.5" y="541.6045">All reservations</text><polygon fill="#181818" points="246.5,572.8125,236.5,576.8125,246.5,580.8125,242.5,576.8125" style="stroke:#181818;stroke-width:1.0;"/><line style="stroke:#181818;stroke-width:1.0;stroke-dasharray:2.0,2.0;" x1="240.5" x2="475.5" y1="576.8125" y2="576.8125"/><text fill="#000000" font-family="sans-serif" font-size="13" lengthAdjust="spacing" textLength="142" x="252.5" y="571.9561">200 OK [all reservations]</text><polygon fill="#181818" points="58.5,603.1641,48.5,607.1641,58.5,611.1641,54.5,607.1641" style="stroke:#181818;stroke-width:1.0;"/><line style="stroke:#181818;stroke-width:1.0;stroke-dasharray:2.0,2.0;" x1="52.5" x2="224.5" y1="607.1641" y2="607.1641"/><text fill="#000000" font-family="sans-serif" font-size="13" lengthAdjust="spacing" textLength="133" x="64.5" y="602.3076">Display all reservations</text><!--SRC=[ZL9DIyGm4BtdLmmzxHwMNJmML2nTHHG5lq1a3-Dsr42sAKbQAU9_TvAoQzgj7pcqQTwyb_TcwgHJ10-Itk66B9a6dTIb5GBNJXkuvoDHeN5oBIii7IIthNMqIG0jy7Q0CPzCXvccZ-Ney1aj1JJFXF3IC3loAYaeZKLy_sJg3KZ-ed2Du4SeDaqAPyixc6CbvoPY7DUyFoyEFxhtPyHdAmALWmw1okX65bG8uCMWrysp55x9nHQorZkSTAHfADv9Ul_XW5MlTAzpSAhhijFsAyzWjlMzt5Ik1JPTAxSh20QsRJXOBE3wuXlpeHdpHb987dKDRzWGb1hYw4bdXfIb_rgvbDQ1VWajwMdjgWkAq_xY5fvY_cfCm4zWF5CkRQMmxLa0nUQwHEnUX5ZSvB-dTwBKu1yQ3ctO1cRifzzFFfeQ1zoL-27rUE8XNOImCRsrNm00]--></g></svg>